<svg width="350" height="150" viewBox="0 0 350 150" fill="none" xmlns="http://www.w3.org/2000/svg">
<rect width="350" height="150" fill="#2F2F2F"/>
<path d="M167.943 63.7273V87H163.023V63.7273H167.943ZM179.764 93.9091C178.196 93.9091 176.851 93.6932 175.73 93.2614C174.616 92.8371 173.73 92.2576 173.071 91.5227C172.412 90.7879 171.984 89.9621 171.787 89.0455L176.264 88.4432C176.401 88.7917 176.616 89.1174 176.912 89.4205C177.207 89.7235 177.598 89.9659 178.082 90.1477C178.575 90.3371 179.173 90.4318 179.878 90.4318C180.931 90.4318 181.798 90.1742 182.48 89.6591C183.17 89.1515 183.514 88.2992 183.514 87.1023V83.9091H183.31C183.098 84.3939 182.779 84.8523 182.355 85.2841C181.931 85.7159 181.385 86.0682 180.719 86.3409C180.052 86.6136 179.257 86.75 178.332 86.75C177.022 86.75 175.829 86.447 174.753 85.8409C173.685 85.2273 172.832 84.2917 172.196 83.0341C171.567 81.7689 171.253 80.1705 171.253 78.2386C171.253 76.2614 171.575 74.6098 172.219 73.2841C172.863 71.9583 173.719 70.9659 174.787 70.3068C175.863 69.6477 177.041 69.3182 178.321 69.3182C179.298 69.3182 180.116 69.4848 180.776 69.8182C181.435 70.1439 181.965 70.553 182.366 71.0455C182.776 71.5303 183.09 72.0076 183.31 72.4773H183.491V69.5455H188.298V87.1705C188.298 88.6553 187.935 89.8977 187.207 90.8977C186.48 91.8977 185.473 92.6477 184.185 93.1477C182.904 93.6553 181.431 93.9091 179.764 93.9091ZM179.866 83.1136C180.647 83.1136 181.306 82.9205 181.844 82.5341C182.389 82.1402 182.806 81.5795 183.094 80.8523C183.389 80.1174 183.537 79.2386 183.537 78.2159C183.537 77.1932 183.393 76.3068 183.105 75.5568C182.817 74.7992 182.401 74.2121 181.855 73.7955C181.31 73.3788 180.647 73.1705 179.866 73.1705C179.071 73.1705 178.401 73.3864 177.855 73.8182C177.31 74.2424 176.897 74.8333 176.616 75.5909C176.336 76.3485 176.196 77.2235 176.196 78.2159C176.196 79.2235 176.336 80.0947 176.616 80.8295C176.904 81.5568 177.317 82.1212 177.855 82.5227C178.401 82.9167 179.071 83.1136 179.866 83.1136ZM196.991 76.9091V87H192.151V69.5455H196.764V72.625H196.969C197.355 71.6098 198.003 70.8068 198.912 70.2159C199.821 69.6174 200.923 69.3182 202.219 69.3182C203.431 69.3182 204.488 69.5833 205.389 70.1136C206.291 70.6439 206.991 71.4015 207.491 72.3864C207.991 73.3636 208.241 74.5303 208.241 75.8864V87H203.401V76.75C203.408 75.6818 203.135 74.8485 202.582 74.25C202.029 73.6439 201.268 73.3409 200.298 73.3409C199.647 73.3409 199.071 73.4811 198.571 73.7614C198.079 74.0417 197.692 74.4508 197.412 74.9886C197.139 75.5189 196.999 76.1591 196.991 76.9091ZM212.057 87V69.5455H216.898V87H212.057ZM214.489 67.2955C213.769 67.2955 213.152 67.0568 212.636 66.5795C212.129 66.0947 211.875 65.5152 211.875 64.8409C211.875 64.1742 212.129 63.6023 212.636 63.125C213.152 62.6402 213.769 62.3977 214.489 62.3977C215.208 62.3977 215.822 62.6402 216.33 63.125C216.845 63.6023 217.102 64.1742 217.102 64.8409C217.102 65.5152 216.845 66.0947 216.33 66.5795C215.822 67.0568 215.208 67.2955 214.489 67.2955ZM230.06 69.5455V73.1818H219.548V69.5455H230.06ZM221.935 65.3636H226.776V81.6364C226.776 82.0833 226.844 82.4318 226.98 82.6818C227.116 82.9242 227.306 83.0947 227.548 83.1932C227.798 83.2917 228.086 83.3409 228.412 83.3409C228.639 83.3409 228.866 83.322 229.094 83.2841C229.321 83.2386 229.495 83.2045 229.616 83.1818L230.378 86.7841C230.135 86.8598 229.795 86.947 229.355 87.0455C228.916 87.1515 228.382 87.2159 227.753 87.2386C226.586 87.2841 225.563 87.1288 224.685 86.7727C223.813 86.4167 223.135 85.8636 222.651 85.1136C222.166 84.3636 221.927 83.4167 221.935 82.2727V65.3636ZM240.98 87.3409C239.185 87.3409 237.639 86.9773 236.344 86.25C235.056 85.5152 234.063 84.4773 233.366 83.1364C232.67 81.7879 232.321 80.1932 232.321 78.3523C232.321 76.5568 232.67 74.9811 233.366 73.625C234.063 72.2689 235.045 71.2121 236.31 70.4545C237.582 69.697 239.075 69.3182 240.787 69.3182C241.938 69.3182 243.01 69.5038 244.003 69.875C245.003 70.2386 245.874 70.7879 246.616 71.5227C247.366 72.2576 247.95 73.1818 248.366 74.2955C248.783 75.4015 248.991 76.697 248.991 78.1818V79.5114H234.253V76.5114H244.435C244.435 75.8144 244.283 75.197 243.98 74.6591C243.677 74.1212 243.257 73.7008 242.719 73.3977C242.188 73.0871 241.571 72.9318 240.866 72.9318C240.132 72.9318 239.48 73.1023 238.912 73.4432C238.351 73.7765 237.912 74.2273 237.594 74.7955C237.276 75.3561 237.113 75.9811 237.105 76.6705V79.5227C237.105 80.3864 237.264 81.1326 237.582 81.7614C237.908 82.3902 238.366 82.875 238.957 83.2159C239.548 83.5568 240.249 83.7273 241.06 83.7273C241.598 83.7273 242.09 83.6515 242.537 83.5C242.984 83.3485 243.366 83.1212 243.685 82.8182C244.003 82.5152 244.245 82.1439 244.412 81.7045L248.889 82C248.662 83.0758 248.196 84.0152 247.491 84.8182C246.795 85.6136 245.893 86.2348 244.787 86.6818C243.688 87.1212 242.42 87.3409 240.98 87.3409ZM259.648 87V63.7273H264.568V82.9432H274.545V87H259.648ZM282.69 87.3295C281.577 87.3295 280.584 87.1364 279.713 86.75C278.842 86.3561 278.152 85.7765 277.645 85.0114C277.145 84.2386 276.895 83.2765 276.895 82.125C276.895 81.1553 277.073 80.3409 277.429 79.6818C277.785 79.0227 278.27 78.4924 278.884 78.0909C279.497 77.6894 280.194 77.3864 280.974 77.1818C281.762 76.9773 282.588 76.8333 283.452 76.75C284.467 76.6439 285.285 76.5455 285.906 76.4545C286.527 76.3561 286.978 76.2121 287.259 76.0227C287.539 75.8333 287.679 75.553 287.679 75.1818V75.1136C287.679 74.3939 287.452 73.8371 286.997 73.4432C286.55 73.0492 285.914 72.8523 285.088 72.8523C284.217 72.8523 283.524 73.0455 283.009 73.4318C282.493 73.8106 282.152 74.2879 281.986 74.8636L277.509 74.5C277.736 73.4394 278.183 72.5227 278.849 71.75C279.516 70.9697 280.376 70.3712 281.429 69.9545C282.49 69.5303 283.717 69.3182 285.111 69.3182C286.08 69.3182 287.009 69.4318 287.895 69.6591C288.789 69.8864 289.58 70.2386 290.27 70.7159C290.967 71.1932 291.516 71.8068 291.918 72.5568C292.319 73.2992 292.52 74.1894 292.52 75.2273V87H287.929V84.5795H287.793C287.512 85.125 287.137 85.6061 286.668 86.0227C286.198 86.4318 285.634 86.7538 284.974 86.9886C284.315 87.2159 283.554 87.3295 282.69 87.3295ZM284.077 83.9886C284.789 83.9886 285.418 83.8485 285.963 83.5682C286.509 83.2803 286.937 82.8939 287.247 82.4091C287.558 81.9242 287.713 81.375 287.713 80.7614V78.9091C287.562 79.0076 287.353 79.0985 287.088 79.1818C286.83 79.2576 286.539 79.3295 286.213 79.3977C285.887 79.4583 285.562 79.5152 285.236 79.5682C284.91 79.6136 284.615 79.6553 284.349 79.6932C283.781 79.7765 283.285 79.9091 282.861 80.0909C282.437 80.2727 282.107 80.5189 281.872 80.8295C281.637 81.1326 281.52 81.5114 281.52 81.9659C281.52 82.625 281.759 83.1288 282.236 83.4773C282.721 83.8182 283.334 83.9886 284.077 83.9886ZM296.366 87V63.7273H301.207V72.4773H301.355C301.567 72.0076 301.874 71.5303 302.276 71.0455C302.685 70.553 303.215 70.1439 303.866 69.8182C304.526 69.4848 305.344 69.3182 306.321 69.3182C307.594 69.3182 308.768 69.6515 309.844 70.3182C310.92 70.9773 311.779 71.9735 312.423 73.3068C313.067 74.6326 313.389 76.2955 313.389 78.2955C313.389 80.2424 313.075 81.8864 312.446 83.2273C311.825 84.5606 310.976 85.572 309.901 86.2614C308.832 86.9432 307.635 87.2841 306.31 87.2841C305.37 87.2841 304.571 87.1288 303.912 86.8182C303.26 86.5076 302.726 86.1174 302.31 85.6477C301.893 85.1705 301.575 84.6894 301.355 84.2045H301.139V87H296.366ZM301.105 78.2727C301.105 79.3106 301.249 80.2159 301.537 80.9886C301.825 81.7614 302.241 82.3636 302.787 82.7955C303.332 83.2197 303.995 83.4318 304.776 83.4318C305.563 83.4318 306.23 83.2159 306.776 82.7841C307.321 82.3447 307.734 81.7386 308.014 80.9659C308.302 80.1856 308.446 79.2879 308.446 78.2727C308.446 77.2652 308.306 76.3788 308.026 75.6136C307.745 74.8485 307.332 74.25 306.787 73.8182C306.241 73.3864 305.571 73.1705 304.776 73.1705C303.988 73.1705 303.321 73.3788 302.776 73.7955C302.238 74.2121 301.825 74.803 301.537 75.5682C301.249 76.3333 301.105 77.2348 301.105 78.2727Z" fill="white"/>
<path d="M141 75.486C141 67.5304 131.045 59.991 115.782 55.3155C119.304 39.7471 117.739 27.3608 110.841 23.3953C109.251 22.4651 107.392 22.0245 105.362 22.0245V27.4832C106.487 27.4832 107.392 27.7035 108.15 28.1197C111.477 30.029 112.92 37.2992 111.795 46.6501C111.526 48.9511 111.086 51.3745 110.547 53.8468C105.753 52.6718 100.519 51.7661 95.0155 51.1786C91.7134 46.6501 88.289 42.5376 84.8402 38.9393C92.8141 31.5222 100.299 27.4588 105.386 27.4588V22C98.66 22 89.8545 26.7978 80.9511 35.1206C72.0477 26.8468 63.2422 22.0979 56.5157 22.0979V27.5567C61.5789 27.5567 69.0881 31.5957 77.062 38.9638C73.6376 42.5621 70.2132 46.6501 66.9601 51.1786C61.4321 51.7661 56.1977 52.6718 51.4036 53.8713C50.841 51.4234 50.4252 49.049 50.1317 46.7725C48.9821 37.4216 50.4007 30.1514 53.7028 28.2176C54.4366 27.777 55.3905 27.5811 56.5157 27.5811V22.1224C54.4611 22.1224 52.6021 22.563 50.9878 23.4932C44.1146 27.4588 42.5736 39.8205 46.1203 55.34C30.9062 60.0399 21 67.5549 21 75.486C21 83.4416 30.9552 90.981 46.2181 95.6565C42.6959 111.225 44.2613 123.611 51.159 127.577C52.7489 128.507 54.6078 128.948 56.6625 128.948C63.3889 128.948 72.1945 124.15 81.0978 115.827C90.0012 124.101 98.8068 128.85 105.533 128.85C107.588 128.85 109.447 128.409 111.061 127.479C117.934 123.513 119.475 111.152 115.929 95.632C131.094 90.9566 141 83.4171 141 75.486V75.486ZM109.153 59.1587C108.248 62.3165 107.123 65.5721 105.851 68.8278C104.848 66.8695 103.797 64.9112 102.647 62.9529C101.522 60.9946 100.323 59.0853 99.1248 57.2249C102.598 57.7389 105.949 58.3754 109.153 59.1587ZM97.9507 85.2285C96.0428 88.5332 94.086 91.6665 92.0559 94.5794C88.4113 94.8976 84.7179 95.069 81 95.069C77.3066 95.069 73.6131 94.8976 69.9931 94.6039C67.9629 91.6909 65.9817 88.5821 64.0738 85.302C62.2148 82.0953 60.5271 78.8396 58.9861 75.5594C60.5027 72.2793 62.2148 68.9991 64.0493 65.7924C65.9572 62.4878 67.914 59.3545 69.9442 56.4416C73.5887 56.1233 77.2821 55.952 81 55.952C84.6934 55.952 88.3869 56.1233 92.0069 56.4171C94.0371 59.3301 96.0183 62.4389 97.9262 65.719C99.7852 68.9257 101.473 72.1814 103.014 75.4615C101.473 78.7417 99.7852 82.0218 97.9507 85.2285ZM105.851 82.0463C107.172 85.3265 108.297 88.6066 109.227 91.7888C106.022 92.5722 102.647 93.2331 99.1492 93.7471C100.348 91.8623 101.546 89.9285 102.671 87.9457C103.797 85.9874 104.848 84.0046 105.851 82.0463ZM81.0489 108.165C78.7742 105.815 76.4994 103.196 74.2491 100.332C76.4505 100.43 78.7008 100.503 80.9755 100.503C83.2748 100.503 85.5495 100.454 87.7754 100.332C85.574 103.196 83.2992 105.815 81.0489 108.165ZM62.8508 93.7471C59.3775 93.2331 56.0265 92.5966 52.8223 91.8133C53.7273 88.6556 54.8524 85.3999 56.1243 82.1442C57.1272 84.1025 58.179 86.0608 59.3286 88.0191C60.4782 89.9774 61.6523 91.8868 62.8508 93.7471ZM80.9266 42.8069C83.2014 45.1569 85.4762 47.7761 87.7265 50.6401C85.5251 50.5422 83.2748 50.4688 81 50.4688C78.7008 50.4688 76.426 50.5177 74.2002 50.6401C76.4016 47.7761 78.6763 45.1569 80.9266 42.8069ZM62.8263 57.2249C61.6278 59.1097 60.4293 61.0436 59.3041 63.0263C58.179 64.9846 57.1272 66.9429 56.1243 68.9012C54.8035 65.6211 53.6784 62.3409 52.7489 59.1587C55.9531 58.3999 59.3286 57.7389 62.8263 57.2249V57.2249ZM40.6902 87.8722C32.0314 84.176 26.4301 79.3292 26.4301 75.486C26.4301 71.6429 32.0314 66.7716 40.6902 63.0998C42.7937 62.1941 45.0929 61.3863 47.4656 60.6274C48.8598 65.4253 50.6943 70.4189 52.969 75.535C50.7187 80.6265 48.9087 85.5957 47.5389 90.3691C45.1174 89.6102 42.8182 88.778 40.6902 87.8722ZM53.8496 122.852C50.523 120.943 49.0799 113.673 50.2051 104.322C50.4741 102.021 50.9144 99.5976 51.4525 97.1252C56.2466 98.3002 61.481 99.2059 66.9845 99.7934C70.2866 104.322 73.711 108.434 77.1598 112.033C69.1859 119.45 61.7012 123.513 56.6135 123.513C55.5128 123.489 54.5834 123.268 53.8496 122.852V122.852ZM111.868 104.2C113.018 113.55 111.599 120.821 108.297 122.754C107.563 123.195 106.609 123.391 105.484 123.391C100.421 123.391 92.912 119.352 84.938 111.984C88.3624 108.385 91.7868 104.297 95.04 99.7689C100.568 99.1814 105.802 98.2757 110.596 97.0763C111.159 99.5486 111.599 101.923 111.868 104.2V104.2ZM121.285 87.8722C119.182 88.778 116.883 89.5858 114.51 90.3446C113.116 85.5468 111.281 80.5531 109.007 75.4371C111.257 70.3455 113.067 65.3763 114.437 60.6029C116.858 61.3618 119.157 62.1941 121.31 63.0998C129.969 66.7961 135.57 71.6429 135.57 75.486C135.545 79.3292 129.944 84.2004 121.285 87.8722V87.8722Z" fill="#81D8F7"/>
<path d="M80.9755 86.6728C87.1491 86.6728 92.1537 81.6643 92.1537 75.486C92.1537 69.3077 87.1491 64.2993 80.9755 64.2993C74.802 64.2993 69.7974 69.3077 69.7974 75.486C69.7974 81.6643 74.802 86.6728 80.9755 86.6728Z" fill="#81D8F7"/>
</svg>
