<svg width="350" height="150" viewBox="0 0 350 150" fill="none" xmlns="http://www.w3.org/2000/svg">
<rect width="350" height="150" fill="#2F2F2F"/>
<path d="M122.504 55.7925V91H115.06V55.7925H122.504ZM140.387 101.452C138.014 101.452 135.98 101.126 134.284 100.472C132.599 99.8305 131.258 98.9538 130.261 97.8421C129.264 96.7304 128.617 95.4812 128.319 94.0944L135.092 93.1833C135.298 93.7105 135.625 94.2033 136.072 94.6617C136.519 95.1201 137.109 95.4869 137.843 95.7619C138.588 96.0485 139.493 96.1917 140.559 96.1917C142.152 96.1917 143.464 95.8021 144.496 95.0227C145.538 94.2549 146.06 92.9655 146.06 91.1547V86.324H145.751C145.43 87.0575 144.948 87.7509 144.306 88.4041C143.665 89.0574 142.839 89.5903 141.831 90.0029C140.822 90.4155 139.619 90.6218 138.221 90.6218C136.238 90.6218 134.433 90.1634 132.806 89.2465C131.19 88.3182 129.9 86.9028 128.938 85.0003C127.986 83.0863 127.511 80.6681 127.511 77.7456C127.511 74.7544 127.998 72.2559 128.972 70.2503C129.946 68.2447 131.241 66.7433 132.857 65.7462C134.485 64.7491 136.267 64.2506 138.204 64.2506C139.682 64.2506 140.92 64.5027 141.917 65.007C142.914 65.4998 143.716 66.1187 144.324 66.8636C144.943 67.5971 145.418 68.3192 145.751 69.0297H146.026V64.5944H153.297V91.2579C153.297 93.5042 152.747 95.3837 151.647 96.8966C150.547 98.4094 149.023 99.544 147.074 100.3C145.137 101.068 142.908 101.452 140.387 101.452ZM140.542 85.1206C141.722 85.1206 142.719 84.8284 143.533 84.2439C144.358 83.6479 144.988 82.7998 145.424 81.6996C145.871 80.5879 146.094 79.2584 146.094 77.7112C146.094 76.164 145.877 74.8231 145.441 73.6885C145.006 72.5424 144.375 71.6542 143.55 71.0239C142.725 70.3935 141.722 70.0784 140.542 70.0784C139.338 70.0784 138.324 70.405 137.499 71.0583C136.674 71.7001 136.049 72.594 135.625 73.7401C135.201 74.8862 134.989 76.2099 134.989 77.7112C134.989 79.2355 135.201 80.5535 135.625 81.6652C136.06 82.7654 136.685 83.6193 137.499 84.2267C138.324 84.8226 139.338 85.1206 140.542 85.1206ZM166.449 75.7343V91H159.125V64.5944H166.105V69.2532H166.414C166.999 67.7175 167.979 66.5026 169.354 65.6087C170.729 64.7033 172.397 64.2506 174.357 64.2506C176.19 64.2506 177.789 64.6517 179.153 65.454C180.517 66.2562 181.577 67.4023 182.333 68.8922C183.09 70.3706 183.468 72.1356 183.468 74.1871V91H176.144V75.4936C176.156 73.8776 175.743 72.6169 174.907 71.7115C174.07 70.7947 172.918 70.3362 171.451 70.3362C170.466 70.3362 169.595 70.5483 168.838 70.9723C168.093 71.3964 167.509 72.0152 167.085 72.829C166.672 73.6312 166.46 74.5996 166.449 75.7343ZM189.24 91V64.5944H196.563V91H189.24ZM192.919 61.1906C191.83 61.1906 190.896 60.8295 190.117 60.1075C189.349 59.374 188.965 58.4973 188.965 57.4773C188.965 56.4687 189.349 55.6034 190.117 54.8814C190.896 54.1479 191.83 53.7812 192.919 53.7812C194.007 53.7812 194.936 54.1479 195.704 54.8814C196.483 55.6034 196.873 56.4687 196.873 57.4773C196.873 58.4973 196.483 59.374 195.704 60.1075C194.936 60.8295 194.007 61.1906 192.919 61.1906ZM216.475 64.5944V70.0956H200.573V64.5944H216.475ZM204.183 58.2681H211.507V82.8858C211.507 83.562 211.61 84.0892 211.816 84.4674C212.022 84.8341 212.309 85.092 212.676 85.241C213.054 85.39 213.489 85.4645 213.982 85.4645C214.326 85.4645 214.67 85.4358 215.014 85.3785C215.357 85.3097 215.621 85.2582 215.804 85.2238L216.956 90.6734C216.589 90.788 216.074 90.9198 215.409 91.0688C214.744 91.2292 213.936 91.3266 212.985 91.361C211.22 91.4298 209.673 91.1948 208.343 90.6562C207.025 90.1175 206 89.2809 205.266 88.1463C204.533 87.0117 204.172 85.5791 204.183 83.8485V58.2681ZM232.996 91.5157C230.279 91.5157 227.941 90.9656 225.982 89.8654C224.033 88.7537 222.532 87.1836 221.477 85.155C220.423 83.115 219.896 80.7025 219.896 77.9175C219.896 75.2013 220.423 72.8175 221.477 70.766C222.532 68.7145 224.016 67.1158 225.93 65.9697C227.855 64.8236 230.113 64.2506 232.703 64.2506C234.445 64.2506 236.067 64.5314 237.568 65.0929C239.081 65.6431 240.399 66.474 241.522 67.5857C242.657 68.6974 243.539 70.0956 244.17 71.7803C244.8 73.4536 245.115 75.4134 245.115 77.6597V79.671H222.818V75.1326H238.222C238.222 74.0782 237.992 73.1441 237.534 72.3304C237.076 71.5167 236.44 70.8806 235.626 70.4222C234.824 69.9523 233.89 69.7174 232.824 69.7174C231.712 69.7174 230.726 69.9752 229.867 70.491C229.019 70.9952 228.354 71.6772 227.873 72.5367C227.391 73.3848 227.145 74.3303 227.133 75.3733V79.6882C227.133 80.9948 227.374 82.1236 227.855 83.0749C228.348 84.0261 229.042 84.7596 229.936 85.2753C230.829 85.7911 231.89 86.049 233.116 86.049C233.93 86.049 234.675 85.9343 235.351 85.7051C236.027 85.4759 236.606 85.1321 237.087 84.6737C237.568 84.2152 237.935 83.6537 238.187 82.9889L244.961 83.4359C244.617 85.0633 243.912 86.4845 242.846 87.6993C241.792 88.9027 240.428 89.8425 238.755 90.5186C237.093 91.1834 235.173 91.5157 232.996 91.5157ZM261.236 91V55.7925H268.68V84.8628H283.774V91H261.236ZM296.096 91.4985C294.411 91.4985 292.91 91.2063 291.592 90.6218C290.274 90.0258 289.231 89.1491 288.463 87.9915C287.706 86.8226 287.328 85.367 287.328 83.625C287.328 82.158 287.597 80.926 288.136 79.9289C288.675 78.9318 289.408 78.1296 290.337 77.5221C291.265 76.9147 292.319 76.4563 293.5 76.1469C294.692 75.8374 295.941 75.6197 297.247 75.4936C298.783 75.3331 300.021 75.1841 300.961 75.0466C301.901 74.8976 302.582 74.6799 303.006 74.3934C303.431 74.1068 303.643 73.6828 303.643 73.1212V73.0181C303.643 71.9293 303.299 71.0869 302.611 70.491C301.935 69.895 300.972 69.597 299.723 69.597C298.405 69.597 297.356 69.8893 296.577 70.4738C295.798 71.0468 295.282 71.7688 295.03 72.6399L288.256 72.0897C288.6 70.4852 289.276 69.0985 290.285 67.9295C291.294 66.749 292.594 65.8436 294.187 65.2133C295.792 64.5715 297.649 64.2506 299.757 64.2506C301.224 64.2506 302.628 64.4225 303.969 64.7663C305.322 65.1101 306.519 65.6431 307.562 66.3651C308.617 67.0871 309.447 68.0154 310.055 69.1501C310.662 70.2732 310.966 71.6199 310.966 73.19V91H304.021V87.3383H303.814C303.39 88.1635 302.823 88.8912 302.113 89.5216C301.402 90.1404 300.548 90.6275 299.551 90.9828C298.554 91.3266 297.402 91.4985 296.096 91.4985ZM298.193 86.4443C299.27 86.4443 300.222 86.2323 301.047 85.8083C301.872 85.3728 302.519 84.7883 302.989 84.0548C303.459 83.3213 303.694 82.4904 303.694 81.5621V78.7599C303.465 78.9089 303.15 79.0464 302.749 79.1725C302.359 79.2871 301.918 79.396 301.425 79.4991C300.932 79.5908 300.439 79.6768 299.946 79.757C299.454 79.8258 299.007 79.8888 298.606 79.9461C297.746 80.0722 296.995 80.2727 296.354 80.5478C295.712 80.8228 295.213 81.1953 294.858 81.6652C294.503 82.1236 294.325 82.6967 294.325 83.3843C294.325 84.3814 294.686 85.1436 295.408 85.6707C296.141 86.1865 297.07 86.4443 298.193 86.4443ZM316.785 91V55.7925H324.109V69.0297H324.332C324.653 68.3192 325.117 67.5971 325.725 66.8636C326.343 66.1187 327.146 65.4998 328.131 65.007C329.128 64.5027 330.366 64.2506 331.845 64.2506C333.77 64.2506 335.546 64.7549 337.174 65.7634C338.801 66.7605 340.102 68.2676 341.076 70.2847C342.05 72.2903 342.538 74.8059 342.538 77.8316C342.538 80.777 342.062 83.264 341.111 85.2925C340.171 87.3096 338.887 88.8396 337.26 89.8826C335.644 90.914 333.833 91.4298 331.827 91.4298C330.406 91.4298 329.197 91.1948 328.2 90.7249C327.214 90.2551 326.407 89.6648 325.776 88.9543C325.146 88.2322 324.664 87.5045 324.332 86.771H324.005V91H316.785ZM323.954 77.7972C323.954 79.3673 324.172 80.7369 324.607 81.9059C325.043 83.0749 325.673 83.986 326.498 84.6393C327.323 85.2811 328.326 85.602 329.507 85.602C330.699 85.602 331.707 85.2753 332.532 84.6221C333.357 83.9574 333.982 83.0405 334.406 81.8715C334.842 80.691 335.059 79.3329 335.059 77.7972C335.059 76.2729 334.847 74.932 334.423 73.7745C333.999 72.6169 333.375 71.7115 332.549 71.0583C331.724 70.405 330.71 70.0784 329.507 70.0784C328.315 70.0784 327.306 70.3935 326.481 71.0239C325.667 71.6542 325.043 72.5482 324.607 73.7057C324.172 74.8632 323.954 76.2271 323.954 77.7972Z" fill="white"/>
<path d="M106.803 75.484C106.803 68.8673 98.5236 62.5968 85.8295 58.7083C88.7589 45.7601 87.4569 35.4586 81.7202 32.1605C80.3979 31.3868 78.8518 31.0204 77.1633 31.0204V35.5604C78.0991 35.5604 78.8518 35.7436 79.4824 36.0897C82.2491 37.6777 83.4493 43.7242 82.5135 51.5013C82.2898 53.415 81.9236 55.4305 81.476 57.4868C77.4888 56.5096 73.1354 55.7563 68.5582 55.2677C65.8119 51.5013 62.9638 48.081 60.0955 45.0883C66.7273 38.9196 72.9523 35.54 77.1837 35.54V31C71.5893 31 64.2658 34.9903 56.8609 41.9123C49.456 35.031 42.1325 31.0814 36.5382 31.0814V35.6214C40.7492 35.6214 46.9945 38.9806 53.6264 45.1086C50.7783 48.1014 47.9303 51.5013 45.2247 55.2677C40.6271 55.7563 36.2737 56.5096 32.2865 57.5071C31.8186 55.4713 31.4727 53.4965 31.2286 51.6031C30.2725 43.826 31.4524 37.7795 34.1987 36.1711C34.809 35.8047 35.6024 35.6418 36.5382 35.6418V31.1018C34.8293 31.1018 33.2833 31.4683 31.9406 32.2419C26.2242 35.54 24.9426 45.8212 27.8924 58.7287C15.2389 62.6376 7 68.8877 7 75.484C7 82.1006 15.2796 88.3711 27.9737 92.2596C25.0443 105.208 26.3463 115.509 32.083 118.807C33.4053 119.581 34.9514 119.948 36.6602 119.948C42.2546 119.948 49.5781 115.957 56.983 109.035C64.3878 115.917 71.7114 119.866 77.3057 119.866C79.0145 119.866 80.5606 119.5 81.9033 118.726C87.6197 115.428 88.9013 105.147 85.9515 92.2392C98.5642 88.3507 106.803 82.0802 106.803 75.484V75.484ZM80.3165 61.9046C79.5638 64.5309 78.628 67.2386 77.5702 69.9464C76.7361 68.3177 75.8613 66.689 74.9052 65.0603C73.9694 63.4316 72.9726 61.8436 71.9758 60.2963C74.8645 60.7238 77.6515 61.2532 80.3165 61.9046ZM70.9993 83.5867C69.4126 86.3352 67.7851 88.9411 66.0967 91.3638C63.0655 91.6285 59.9937 91.771 56.9016 91.771C53.8298 91.771 50.758 91.6285 47.7472 91.3842C46.0587 88.9615 44.4109 86.3759 42.8242 83.6478C41.2781 80.9808 39.8744 78.2731 38.5928 75.545C39.8541 72.817 41.2781 70.0889 42.8038 67.4219C44.3906 64.6734 46.018 62.0675 47.7065 59.6448C50.7376 59.3802 53.8094 59.2376 56.9016 59.2376C59.9734 59.2376 63.0452 59.3802 66.056 59.6245C67.7445 62.0472 69.3922 64.6327 70.979 67.3608C72.5251 70.0278 73.9288 72.7355 75.2104 75.4636C73.9288 78.1917 72.5251 80.9197 70.9993 83.5867ZM77.5702 80.9401C78.6687 83.6682 79.6045 86.3963 80.3775 89.0429C77.7126 89.6944 74.9052 90.2441 71.9962 90.6716C72.993 89.104 73.9898 87.4956 74.9256 85.8466C75.8614 84.2179 76.7361 82.5688 77.5702 80.9401ZM56.9423 102.663C55.0504 100.708 53.1585 98.5301 51.2869 96.1481C53.1178 96.2296 54.9893 96.2906 56.8813 96.2906C58.7935 96.2906 60.6854 96.2499 62.5366 96.1481C60.7058 98.5301 58.8138 100.708 56.9423 102.663ZM41.807 90.6716C38.9183 90.2441 36.1313 89.7147 33.4664 89.0633C34.219 86.437 35.1548 83.7293 36.2127 81.0215C37.0467 82.6503 37.9215 84.279 38.8776 85.9077C39.8337 87.5364 40.8102 89.1243 41.807 90.6716ZM56.8406 48.305C58.7325 50.2594 60.6244 52.4378 62.4959 54.8198C60.6651 54.7383 58.7935 54.6773 56.9016 54.6773C54.9893 54.6773 53.0974 54.718 51.2462 54.8198C53.0771 52.4378 54.969 50.2594 56.8406 48.305ZM41.7867 60.2963C40.7899 61.8639 39.7931 63.4723 38.8573 65.1213C37.9215 66.75 37.0467 68.3787 36.2127 70.0074C35.1141 67.2794 34.1784 64.5513 33.4053 61.9046C36.0703 61.2735 38.8776 60.7238 41.7867 60.2963V60.2963ZM23.3762 85.7855C16.1747 82.7113 11.5162 78.6803 11.5162 75.484C11.5162 72.2876 16.1747 68.2362 23.3762 65.1824C25.1257 64.4291 27.0379 63.7573 29.0112 63.1262C30.1708 67.1165 31.6965 71.2697 33.5884 75.5247C31.7169 79.7593 30.2115 83.8921 29.0723 87.8621C27.0583 87.231 25.146 86.5388 23.3762 85.7855ZM34.3208 114.878C31.5541 113.29 30.3539 107.244 31.2896 99.4666C31.5134 97.5529 31.8796 95.5374 32.3271 93.4811C36.3144 94.4583 40.6678 95.2116 45.245 95.7002C47.9913 99.4666 50.8394 102.887 53.7077 105.88C47.0759 112.048 40.8509 115.428 36.6195 115.428C35.7041 115.408 34.9311 115.224 34.3208 114.878V114.878ZM82.5746 99.3648C83.5307 107.142 82.3508 113.188 79.6045 114.797C78.9942 115.163 78.2008 115.326 77.265 115.326C73.054 115.326 66.8087 111.967 60.1768 105.839C63.0249 102.846 65.8729 99.4463 68.5785 95.6799C73.1761 95.1913 77.5295 94.438 81.5167 93.4404C81.9846 95.4966 82.3508 97.4714 82.5746 99.3648V99.3648ZM90.4067 85.7855C88.6572 86.5388 86.7449 87.2106 84.7716 87.8417C83.6121 83.8514 82.0863 79.6982 80.1944 75.4432C82.066 71.2086 83.5714 67.0758 84.7106 63.1058C86.7246 63.7369 88.6368 64.4291 90.427 65.1824C97.6285 68.2566 102.287 72.2876 102.287 75.484C102.267 78.6803 97.6081 82.7317 90.4067 85.7855V85.7855Z" fill="#81D8F7"/>
<path d="M56.8813 84.7879C62.0157 84.7879 66.1781 80.6224 66.1781 75.484C66.1781 70.3455 62.0157 66.18 56.8813 66.18C51.7468 66.18 47.5845 70.3455 47.5845 75.484C47.5845 80.6224 51.7468 84.7879 56.8813 84.7879Z" fill="#81D8F7"/>
</svg>
